# xmcd
#
# Track frame offsets:
#	150
#	22978
#	45088
#	72730
#	93403
#	103755
#	118183
#	139345
#	150494
#	170956
#
# Disc length: 2463 seconds
#
# Revision: 1
# Processed by: cddbd v1.5.2PL0 Copyright (c) Steve Scherf et al.
# Submitted via: audiograbber 1.83.01
#
DISCID=88099d0a
DTITLE=Paal Flaata - Come Tomorrow - Songs of Townes van Zandt
DYEAR=2016
DGENRE=Country
TTITLE0=Flyin' Shoes
TTITLE1=Our Mother the Mountain
TTITLE2=Tower Song
TTITLE3=Rake
TTITLE4=Kathleen
TTITLE5=Come Tomorrow
TTITLE6=Quicksilver Daydreams of Maria
TTITLE7=Where I Lead Me
TTITLE8=Velvet Voices
TTITLE9=Snow Don't Fall
EXTD=
EXTT0=
EXTT1=
EXTT2=
EXTT3=
EXTT4=
EXTT5=
EXTT6=
EXTT7=
EXTT8=
EXTT9=
PLAYORDER=
